<svg width="12" height="7" viewBox="0 0 12 7" fill="none" xmlns="http://www.w3.org/2000/svg">
<path d="M11.354 1.3537L6.35403 6.3537C6.30759 6.40019 6.25245 6.43707 6.19175 6.46223C6.13105 6.4874 6.06599 6.50035 6.00028 6.50035C5.93457 6.50035 5.86951 6.4874 5.80881 6.46223C5.74811 6.43707 5.69296 6.40019 5.64653 6.3537L0.646528 1.3537C0.552708 1.25988 0.5 1.13264 0.5 0.999954C0.5 0.867272 0.552708 0.740024 0.646528 0.646204C0.740348 0.552383 0.867596 0.499676 1.00028 0.499676C1.13296 0.499676 1.26021 0.552383 1.35403 0.646204L6.00028 5.29308L10.6465 0.646204C10.693 0.599748 10.7481 0.562898 10.8088 0.537757C10.8695 0.512616 10.9346 0.499676 11.0003 0.499676C11.066 0.499676 11.131 0.512616 11.1917 0.537757C11.2524 0.562898 11.3076 0.599748 11.354 0.646204C11.4005 0.692659 11.4373 0.747809 11.4625 0.808506C11.4876 0.869202 11.5006 0.934256 11.5006 0.999954C11.5006 1.06565 11.4876 1.13071 11.4625 1.1914C11.4373 1.2521 11.4005 1.30725 11.354 1.3537Z" fill="white"/>
</svg>
