<svg width="48" height="48" viewBox="0 0 48 48" fill="none" xmlns="http://www.w3.org/2000/svg">
<path d="M4.34424 43.4805L16.585 39.2112L9.0602 31.4049L4.34424 43.4805Z" fill="#0A0A0A"/>
<path d="M25.674 43.3296C37.6018 43.3296 47.2713 33.7326 47.2713 21.8942C47.2713 10.0558 37.6018 0.458923 25.674 0.458923C13.7461 0.458923 4.07666 10.0558 4.07666 21.8942C4.07666 33.7326 13.7461 43.3296 25.674 43.3296Z" fill="#0A0A0A"/>
<path d="M24.5128 0.029702C19.729 0.296969 15.1746 2.06525 11.5274 5.07537C10.6905 5.76649 9.68351 6.73566 9.00319 7.50507C5.96877 10.939 4.09251 15.1451 3.59307 19.6401C3.49048 20.5606 3.47158 20.9467 3.47158 22.0832C3.47158 23.2846 3.50128 23.8002 3.63356 24.8504C4.01692 27.8767 5.05089 30.8329 6.64909 33.465L6.79757 33.7107L4.88621 39.3503C3.83334 42.4522 2.97485 44.9926 2.97755 44.9953C2.98025 44.998 5.62321 44.1611 8.84931 43.1379L14.7157 41.2724L14.9236 41.3831C15.7146 41.807 16.7134 42.2794 17.3721 42.5413C19.297 43.308 21.3919 43.8209 23.4599 44.0288C25.0635 44.1935 26.8858 44.1719 28.4813 43.9748C34.2477 43.2621 39.5094 40.3195 43.1539 35.7705C45.0194 33.4434 46.3854 30.7816 47.1764 27.9307C47.6732 26.1381 47.9269 24.3834 47.9647 22.4747C48.07 16.9539 46.1236 11.6976 42.4169 7.49697C42.0066 7.02993 41.005 6.02835 40.5622 5.6396C39.809 4.97818 39.0261 4.36806 38.2675 3.85512C34.5312 1.31744 30.1362 -0.0215917 25.6196 0.00270525C25.2255 0.00540491 24.7287 0.0189032 24.5128 0.029702ZM26.6482 2.40271C30.2981 2.58358 33.6781 3.68775 36.7017 5.6828C41.2777 8.70372 44.4174 13.5145 45.2975 18.8571C45.4864 19.9991 45.5539 20.8549 45.5539 22.0697C45.5539 23.4979 45.454 24.5399 45.1922 25.8628C44.2446 30.6601 41.5476 34.8958 37.5521 37.8682C35.2925 39.5474 32.5928 40.7622 29.8176 41.3426C27.6012 41.807 25.1931 41.8853 22.9469 41.5721C20.2689 41.1969 17.6124 40.2493 15.3717 38.8698C15.207 38.7699 15.0531 38.6862 15.0342 38.6862C15.0126 38.6862 13.1526 39.2693 10.8984 39.9847C8.64684 40.7001 6.79757 41.2805 6.79217 41.2752C6.78407 41.2697 7.3537 39.569 8.05561 37.4983C8.75752 35.4277 9.35955 33.6459 9.39464 33.5433L9.45404 33.3543L9.14627 32.8954C6.70848 29.2509 5.58812 24.9503 5.92828 20.5444C6.36292 14.9048 9.22996 9.74579 13.8356 6.30912C17.5017 3.57436 22.0858 2.17593 26.6482 2.40271Z" fill="white"/>
<path d="M17.6883 12.3779C17.3724 12.467 17.1322 12.6425 16.738 13.0771C16.2251 13.6441 15.974 14.0085 15.7014 14.5836C15.3801 15.2585 15.2181 15.9496 15.1803 16.7919C15.1128 18.4333 15.7985 20.2664 17.2537 22.3208C18.2741 23.7624 18.5171 24.0837 19.1569 24.8504C21.2357 27.3503 23.6735 29.3075 25.9979 30.3442C26.851 30.7248 28.6948 31.4052 29.7477 31.7237C31.1191 32.1395 31.8777 32.234 32.5445 32.0747C32.6795 32.0423 32.9144 31.9964 33.071 31.9748C33.9133 31.856 35.1011 31.2135 35.8246 30.4819C36.2215 30.0823 36.3295 29.8933 36.4996 29.2886C36.6615 28.7217 36.7695 27.9361 36.7236 27.6742C36.702 27.5635 36.6939 27.5527 36.567 27.5041C36.4915 27.4744 35.9839 27.2315 35.4332 26.9642C33.5218 26.0301 32.307 25.4659 31.9992 25.366C31.7535 25.285 31.7454 25.2904 31.4107 25.7332C30.9005 26.4135 29.8395 27.6742 29.5992 27.8848C29.4183 28.0468 29.1214 28.1845 28.8757 28.2196C28.5436 28.2682 28.3277 28.2088 27.5124 27.8497C26.3677 27.3422 25.7657 27.0236 24.9612 26.4918C23.6789 25.6468 22.5963 24.6803 21.6217 23.5086C20.8523 22.5854 19.9533 21.2544 19.794 20.8063C19.7427 20.6632 19.7265 20.5552 19.7238 20.3959C19.7238 19.991 19.8561 19.7183 20.2719 19.2729C20.4096 19.1244 20.693 18.8004 20.9009 18.5521C21.2303 18.1579 21.3005 18.0553 21.4516 17.753C21.6568 17.3453 21.6568 17.3858 21.4435 16.9026C21.3625 16.719 20.9495 15.7336 20.5256 14.7158C20.1018 13.6981 19.7157 12.7829 19.6645 12.6857C19.6159 12.5858 19.5376 12.4751 19.4917 12.4346C19.4107 12.3671 19.3891 12.3644 19.1191 12.3644C18.9598 12.3644 18.6062 12.359 18.3308 12.3509C17.9367 12.3401 17.8017 12.3455 17.6883 12.3779Z" fill="white"/>
</svg>
