<svg width="51" height="40" viewBox="0 0 51 40" fill="none" xmlns="http://www.w3.org/2000/svg">
<path d="M35.9551 25.1278L46.9325 13.8195H37.113L33.1581 17.8647V0.210526H24.1054V12.6015C17.3686 7.77444 7.98514 9.32331 3.15807 16.0601C-1.669 22.797 -0.120126 32.1654 6.61672 36.9925C12.7972 41.4286 21.3235 40.5263 26.4663 34.9023L31.549 29.6692C31.2483 30.5564 30.8573 31.4135 30.3912 32.2256L37.9551 39.7895H50.6318L35.9551 25.1278ZM15.3686 31.6992C11.549 31.6992 8.4513 28.6015 8.4513 24.782C8.4513 20.9624 11.549 17.8647 15.3686 17.8647C19.1881 17.8647 22.2859 20.9624 22.2859 24.782C22.2859 28.6015 19.1881 31.6992 15.3686 31.6992Z" fill="white"/>
</svg>
